<mxfile host="app.diagrams.net" agent="Mozilla/5.0 (Windows NT 10.0; Win64; x64) AppleWebKit/537.36 (KHTML, like Gecko) Chrome/140.0.0.0 Safari/537.36" version="28.2.3">
  <diagram name="Page-1" id="P1MPC9nd-qqLCUmX9ThJ">
    <mxGraphModel dx="1895" dy="1022" grid="1" gridSize="10" guides="1" tooltips="1" connect="1" arrows="1" fold="1" page="1" pageScale="1" pageWidth="850" pageHeight="1100" math="0" shadow="0">
      <root>
        <mxCell id="0" />
        <mxCell id="1" parent="0" />
        <mxCell id="RF-Ec1mBKRd1LLmr-lb3-1" value="develop" style="ellipse;whiteSpace=wrap;html=1;" vertex="1" parent="1">
          <mxGeometry x="280" y="140" width="140" height="80" as="geometry" />
        </mxCell>
        <mxCell id="RF-Ec1mBKRd1LLmr-lb3-2" value="plan" style="ellipse;whiteSpace=wrap;html=1;" vertex="1" parent="1">
          <mxGeometry x="280" y="10" width="140" height="80" as="geometry" />
        </mxCell>
        <mxCell id="RF-Ec1mBKRd1LLmr-lb3-3" value="operate" style="ellipse;whiteSpace=wrap;html=1;" vertex="1" parent="1">
          <mxGeometry x="280" y="790" width="140" height="80" as="geometry" />
        </mxCell>
        <mxCell id="RF-Ec1mBKRd1LLmr-lb3-4" value="deploy" style="ellipse;whiteSpace=wrap;html=1;" vertex="1" parent="1">
          <mxGeometry x="280" y="660" width="140" height="80" as="geometry" />
        </mxCell>
        <mxCell id="RF-Ec1mBKRd1LLmr-lb3-5" value="release" style="ellipse;whiteSpace=wrap;html=1;" vertex="1" parent="1">
          <mxGeometry x="280" y="530" width="140" height="80" as="geometry" />
        </mxCell>
        <mxCell id="RF-Ec1mBKRd1LLmr-lb3-6" value="monitor" style="ellipse;whiteSpace=wrap;html=1;" vertex="1" parent="1">
          <mxGeometry x="280" y="930" width="140" height="80" as="geometry" />
        </mxCell>
        <mxCell id="RF-Ec1mBKRd1LLmr-lb3-7" value="test" style="ellipse;whiteSpace=wrap;html=1;" vertex="1" parent="1">
          <mxGeometry x="280" y="400" width="140" height="80" as="geometry" />
        </mxCell>
        <mxCell id="RF-Ec1mBKRd1LLmr-lb3-8" value="build" style="ellipse;whiteSpace=wrap;html=1;" vertex="1" parent="1">
          <mxGeometry x="280" y="270" width="140" height="80" as="geometry" />
        </mxCell>
        <mxCell id="RF-Ec1mBKRd1LLmr-lb3-9" value="" style="endArrow=classic;html=1;rounded=0;entryX=0.92;entryY=0.792;entryDx=0;entryDy=0;entryPerimeter=0;" edge="1" parent="1">
          <mxGeometry width="50" height="50" relative="1" as="geometry">
            <mxPoint x="350.6" y="90" as="sourcePoint" />
            <mxPoint x="349.4" y="143.36" as="targetPoint" />
          </mxGeometry>
        </mxCell>
        <mxCell id="RF-Ec1mBKRd1LLmr-lb3-11" value="" style="endArrow=classic;html=1;rounded=0;entryX=0.92;entryY=0.792;entryDx=0;entryDy=0;entryPerimeter=0;" edge="1" parent="1">
          <mxGeometry width="50" height="50" relative="1" as="geometry">
            <mxPoint x="350.6" y="220" as="sourcePoint" />
            <mxPoint x="349.4" y="273.36" as="targetPoint" />
          </mxGeometry>
        </mxCell>
        <mxCell id="RF-Ec1mBKRd1LLmr-lb3-12" value="" style="endArrow=classic;html=1;rounded=0;entryX=0.92;entryY=0.792;entryDx=0;entryDy=0;entryPerimeter=0;" edge="1" parent="1">
          <mxGeometry width="50" height="50" relative="1" as="geometry">
            <mxPoint x="350.6" y="350" as="sourcePoint" />
            <mxPoint x="349.4" y="403.36" as="targetPoint" />
          </mxGeometry>
        </mxCell>
        <mxCell id="RF-Ec1mBKRd1LLmr-lb3-13" value="" style="endArrow=classic;html=1;rounded=0;entryX=0.92;entryY=0.792;entryDx=0;entryDy=0;entryPerimeter=0;" edge="1" parent="1">
          <mxGeometry width="50" height="50" relative="1" as="geometry">
            <mxPoint x="350.6" y="480" as="sourcePoint" />
            <mxPoint x="349.4" y="533.36" as="targetPoint" />
          </mxGeometry>
        </mxCell>
        <mxCell id="RF-Ec1mBKRd1LLmr-lb3-14" value="" style="endArrow=classic;html=1;rounded=0;entryX=0.92;entryY=0.792;entryDx=0;entryDy=0;entryPerimeter=0;" edge="1" parent="1">
          <mxGeometry width="50" height="50" relative="1" as="geometry">
            <mxPoint x="350.6" y="610" as="sourcePoint" />
            <mxPoint x="349.4" y="663.36" as="targetPoint" />
          </mxGeometry>
        </mxCell>
        <mxCell id="RF-Ec1mBKRd1LLmr-lb3-15" value="" style="endArrow=classic;html=1;rounded=0;entryX=0.92;entryY=0.792;entryDx=0;entryDy=0;entryPerimeter=0;" edge="1" parent="1">
          <mxGeometry width="50" height="50" relative="1" as="geometry">
            <mxPoint x="350.6" y="740" as="sourcePoint" />
            <mxPoint x="349.4" y="793.36" as="targetPoint" />
          </mxGeometry>
        </mxCell>
        <mxCell id="RF-Ec1mBKRd1LLmr-lb3-16" value="" style="endArrow=classic;html=1;rounded=0;entryX=0.92;entryY=0.792;entryDx=0;entryDy=0;entryPerimeter=0;" edge="1" parent="1">
          <mxGeometry width="50" height="50" relative="1" as="geometry">
            <mxPoint x="350.6" y="870" as="sourcePoint" />
            <mxPoint x="349.4" y="923.3600000000001" as="targetPoint" />
          </mxGeometry>
        </mxCell>
      </root>
    </mxGraphModel>
  </diagram>
</mxfile>
